<svg version="1.1" id="Layer_1" xmlns="http://www.w3.org/2000/svg" xmlns:xlink="http://www.w3.org/1999/xlink" x="0px" y="0px"
	 width="100%" viewBox="0 0 2000 2000" enable-background="new 0 0 2000 2000" xml:space="preserve">
<path fill="#170547" opacity="1.000000" stroke="none" 
	d="
M1128.000000,2001.000000 
	C752.000000,2001.000000 376.500000,2001.000000 1.000000,2001.000000 
	C1.000000,1334.333374 1.000000,667.666687 1.000000,1.000000 
	C667.666687,1.000000 1334.333374,1.000000 2001.000000,1.000000 
	C2001.000000,667.666687 2001.000000,1334.333374 2001.000000,2001.000000 
	C1710.166626,2001.000000 1419.333374,2001.000000 1128.000000,2001.000000 
M554.095886,1304.587891 
	C551.144836,1307.981812 548.597473,1311.872192 545.160034,1314.668213 
	C537.607422,1320.811523 538.703735,1328.727295 539.289429,1336.692871 
	C635.504028,1336.692871 731.390259,1336.692871 827.235718,1336.692871 
	C827.235718,1178.027100 827.235718,1019.670410 827.235718,861.397583 
	C790.764709,861.397583 754.672607,861.397583 718.094971,861.397583 
	C718.094971,872.191528 718.094971,882.711304 718.094971,894.198181 
	C716.519836,892.486389 715.671265,891.529053 714.785950,890.607117 
	C695.734375,870.768005 673.028320,857.363892 645.519531,854.041443 
	C587.747070,847.063782 540.490234,867.077026 505.294250,913.027710 
	C472.283936,956.124817 463.106140,1005.665771 472.004181,1058.588013 
	C487.005890,1147.812500 564.724915,1195.866821 649.519165,1181.507568 
	C674.868225,1177.214966 695.514893,1163.791138 714.057922,1146.670776 
	C715.179443,1145.635254 716.375488,1144.680542 717.841309,1143.428101 
	C717.841309,1173.858643 717.841309,1203.586548 717.841309,1233.492065 
	C685.167114,1233.492065 652.843994,1233.542725 620.521545,1233.415771 
	C617.208496,1233.402710 615.031677,1234.381714 612.878113,1236.879028 
	C593.513611,1259.335327 574.023010,1281.682739 554.095886,1304.587891 
M1763.344604,984.844727 
	C1804.087036,946.448364 1844.814941,908.036621 1885.607178,869.693298 
	C1888.095215,867.354553 1889.840088,865.109192 1888.373169,861.336731 
	C1887.347778,861.267883 1886.211914,861.125183 1885.076172,861.124939 
	C1839.417725,861.113464 1793.759033,861.074768 1748.101196,861.241638 
	C1745.977661,861.249390 1743.380981,862.624878 1741.811890,864.178528 
	C1709.723633,895.951355 1677.756226,927.846191 1645.755493,959.707458 
	C1640.765869,964.675415 1635.731201,969.598083 1629.988770,975.260132 
	C1629.988770,871.535889 1629.988770,768.974548 1629.988770,666.313171 
	C1593.459595,666.313171 1557.245972,666.313171 1521.141113,666.313171 
	C1521.141113,836.860352 1521.141113,1007.093384 1521.141113,1177.512817 
	C1557.485840,1177.512817 1593.559692,1177.512817 1630.280640,1177.512817 
	C1630.280640,1134.835693 1630.280640,1092.398193 1630.280640,1049.289917 
	C1631.337158,1050.245117 1631.726074,1050.547607 1632.057739,1050.903320 
	C1670.341309,1091.981323 1708.640869,1133.044556 1746.850708,1174.190918 
	C1749.174072,1176.692871 1751.440552,1177.848755 1754.950317,1177.839233 
	C1800.608398,1177.715454 1846.267090,1177.757080 1891.925537,1177.756958 
	C1893.535889,1177.756958 1895.146362,1177.756958 1896.540283,1177.756958 
	C1897.864990,1173.216675 1896.338135,1170.402100 1893.522827,1167.490845 
	C1857.270142,1130.002808 1821.138916,1092.397217 1784.978760,1054.819702 
	C1769.856201,1039.104126 1754.737671,1023.384705 1739.381836,1007.422485 
	C1747.331909,999.920105 1755.071533,992.616150 1763.344604,984.844727 
M1477.510742,958.022339 
	C1463.926514,923.697388 1441.118408,897.129761 1409.608276,878.119507 
	C1369.796021,854.100525 1326.326294,846.550415 1280.509399,850.526489 
	C1245.988403,853.522278 1213.968384,864.230408 1185.805054,884.508606 
	C1136.092773,920.302673 1112.545044,969.174316 1116.977661,1030.403931 
	C1121.625000,1094.598999 1152.876831,1142.052979 1210.942139,1170.198853 
	C1256.789673,1192.422119 1305.305420,1194.318481 1354.389282,1183.192627 
	C1397.483765,1173.424561 1433.610962,1151.962402 1458.927490,1115.010864 
	C1492.242676,1066.384277 1496.068848,1013.793396 1477.510742,958.022339 
M177.500015,862.079102 
	C153.903503,862.079102 130.307007,862.079102 106.638947,862.079102 
	C106.638947,967.898987 106.638947,1073.110107 106.638947,1178.390381 
	C143.194916,1178.390381 179.433014,1178.390381 216.108673,1178.390381 
	C216.108673,1107.187500 216.108673,1036.291138 216.108673,965.228271 
	C253.275040,965.228271 290.002197,965.228271 327.154175,965.228271 
	C327.154175,1036.406006 327.154175,1107.293213 327.154175,1178.322144 
	C363.678162,1178.322144 399.776428,1178.322144 436.325012,1178.322144 
	C436.325012,1176.289795 436.325043,1174.493164 436.325043,1172.696533 
	C436.325073,1109.873901 436.383514,1047.051147 436.264282,984.228760 
	C436.245636,974.414795 435.701233,964.579468 434.911560,954.793518 
	C432.472809,924.572144 419.250092,900.172180 394.917236,881.906494 
	C376.547516,868.117065 356.375092,860.083496 332.924103,860.720764 
	C312.442688,861.277344 291.933197,860.742432 271.439209,860.971069 
	C269.192322,860.996155 266.315948,862.303284 264.832733,863.986267 
	C252.388229,878.106628 240.202454,892.454956 227.935638,906.731995 
	C224.194031,911.086670 220.442627,915.432861 215.884232,920.725220 
	C215.884232,900.478699 215.884232,881.456787 215.884232,862.079102 
	C203.097595,862.079102 190.798813,862.079102 177.500015,862.079102 
M974.404968,1177.839355 
	C977.010437,1177.839355 979.615967,1177.839355 982.793457,1177.839355 
	C982.793457,1106.877441 982.793457,1036.529907 982.793457,965.949036 
	C1008.200439,965.949036 1033.006592,966.024780 1057.810547,965.822571 
	C1060.088379,965.804077 1063.054688,964.624329 1064.517700,962.949768 
	C1092.023560,931.467529 1119.371948,899.847473 1146.654907,868.171509 
	C1148.098877,866.495056 1148.674438,864.070679 1149.887085,861.501221 
	C1147.906372,861.287903 1147.095703,861.124512 1146.285156,861.124268 
	C1108.465332,861.111694 1070.645386,861.069153 1032.826416,861.241882 
	C1030.904419,861.250610 1028.489746,862.683899 1027.150879,864.200928 
	C1013.043396,880.184875 999.102234,896.315674 985.143250,912.430237 
	C984.431702,913.251709 983.975220,914.294189 983.399963,915.233704 
	C982.982117,914.979126 982.564331,914.724548 982.146484,914.469910 
	C982.146484,896.791809 982.146484,879.113708 982.146484,861.318115 
	C945.574280,861.318115 909.493042,861.318115 873.228027,861.318115 
	C873.228027,966.856873 873.228027,1072.189819 873.228027,1177.442139 
	C873.852966,1177.626343 874.158569,1177.795166 874.464233,1177.795288 
	C907.452087,1177.818115 940.439880,1177.828369 974.404968,1177.839355 
z"/>
<path fill="#FEFEFE" opacity="1.000000" stroke="none" 
	d="
M554.332642,1304.324951 
	C574.023010,1281.682739 593.513611,1259.335327 612.878113,1236.879028 
	C615.031677,1234.381714 617.208496,1233.402710 620.521545,1233.415771 
	C652.843994,1233.542725 685.167114,1233.492065 717.841309,1233.492065 
	C717.841309,1203.586548 717.841309,1173.858643 717.841309,1143.428101 
	C716.375488,1144.680542 715.179443,1145.635254 714.057922,1146.670776 
	C695.514893,1163.791138 674.868225,1177.214966 649.519165,1181.507568 
	C564.724915,1195.866821 487.005890,1147.812500 472.004181,1058.588013 
	C463.106140,1005.665771 472.283936,956.124817 505.294250,913.027710 
	C540.490234,867.077026 587.747070,847.063782 645.519531,854.041443 
	C673.028320,857.363892 695.734375,870.768005 714.785950,890.607117 
	C715.671265,891.529053 716.519836,892.486389 718.094971,894.198181 
	C718.094971,882.711304 718.094971,872.191528 718.094971,861.397583 
	C754.672607,861.397583 790.764709,861.397583 827.235718,861.397583 
	C827.235718,1019.670410 827.235718,1178.027100 827.235718,1336.692871 
	C731.390259,1336.692871 635.504028,1336.692871 539.289429,1336.692871 
	C538.703735,1328.727295 537.607422,1320.811523 545.160034,1314.668213 
	C548.597473,1311.872192 551.144836,1307.981812 554.332642,1304.324951 
M676.679260,950.726013 
	C665.033325,946.293396 653.027405,945.199097 640.852783,947.592712 
	C604.145752,954.809570 579.893616,987.924133 582.999756,1026.307617 
	C586.894897,1074.441895 638.173096,1104.871094 681.791138,1084.332153 
	C709.809509,1071.138672 723.874634,1047.579224 723.506165,1017.167419 
	C723.123169,985.553406 706.506653,963.486206 676.679260,950.726013 
z"/>
<path fill="#FFFFFF" opacity="1.000000" stroke="none" 
	d="
M1763.077881,985.078491 
	C1755.071533,992.616150 1747.331909,999.920105 1739.381836,1007.422485 
	C1754.737671,1023.384705 1769.856201,1039.104126 1784.978760,1054.819702 
	C1821.138916,1092.397217 1857.270142,1130.002808 1893.522827,1167.490845 
	C1896.338135,1170.402100 1897.864990,1173.216675 1896.540283,1177.756958 
	C1895.146362,1177.756958 1893.535889,1177.756958 1891.925537,1177.756958 
	C1846.267090,1177.757080 1800.608398,1177.715454 1754.950317,1177.839233 
	C1751.440552,1177.848755 1749.174072,1176.692871 1746.850708,1174.190918 
	C1708.640869,1133.044556 1670.341309,1091.981323 1632.057739,1050.903320 
	C1631.726074,1050.547607 1631.337158,1050.245117 1630.280640,1049.289917 
	C1630.280640,1092.398193 1630.280640,1134.835693 1630.280640,1177.512817 
	C1593.559692,1177.512817 1557.485840,1177.512817 1521.141113,1177.512817 
	C1521.141113,1007.093384 1521.141113,836.860352 1521.141113,666.313171 
	C1557.245972,666.313171 1593.459595,666.313171 1629.988770,666.313171 
	C1629.988770,768.974548 1629.988770,871.535889 1629.988770,975.260132 
	C1635.731201,969.598083 1640.765869,964.675415 1645.755493,959.707458 
	C1677.756226,927.846191 1709.723633,895.951355 1741.811890,864.178528 
	C1743.380981,862.624878 1745.977661,861.249390 1748.101196,861.241638 
	C1793.759033,861.074768 1839.417725,861.113464 1885.076172,861.124939 
	C1886.211914,861.125183 1887.347778,861.267883 1888.373169,861.336731 
	C1889.840088,865.109192 1888.095215,867.354553 1885.607178,869.693298 
	C1844.814941,908.036621 1804.087036,946.448364 1763.077881,985.078491 
z"/>
<path fill="#FEFEFF" opacity="1.000000" stroke="none" 
	d="
M1477.673950,958.375610 
	C1496.068848,1013.793396 1492.242676,1066.384277 1458.927490,1115.010864 
	C1433.610962,1151.962402 1397.483765,1173.424561 1354.389282,1183.192627 
	C1305.305420,1194.318481 1256.789673,1192.422119 1210.942139,1170.198853 
	C1152.876831,1142.052979 1121.625000,1094.598999 1116.977661,1030.403931 
	C1112.545044,969.174316 1136.092773,920.302673 1185.805054,884.508606 
	C1213.968384,864.230408 1245.988403,853.522278 1280.509399,850.526489 
	C1326.326294,846.550415 1369.796021,854.100525 1409.608276,878.119507 
	C1441.118408,897.129761 1463.926514,923.697388 1477.673950,958.375610 
M1350.627075,965.873169 
	C1330.730835,947.433350 1307.446411,941.884033 1281.722656,949.612976 
	C1231.748169,964.628235 1215.451660,1028.271484 1250.928345,1068.331665 
	C1278.804321,1099.809082 1329.576050,1098.595459 1355.875977,1065.822876 
	C1380.283203,1035.408813 1378.373779,995.451050 1350.627075,965.873169 
z"/>
<path fill="#FEFEFE" opacity="1.000000" stroke="none" 
	d="
M178.000031,862.079102 
	C190.798813,862.079102 203.097595,862.079102 215.884232,862.079102 
	C215.884232,881.456787 215.884232,900.478699 215.884232,920.725220 
	C220.442627,915.432861 224.194031,911.086670 227.935638,906.731995 
	C240.202454,892.454956 252.388229,878.106628 264.832733,863.986267 
	C266.315948,862.303284 269.192322,860.996155 271.439209,860.971069 
	C291.933197,860.742432 312.442688,861.277344 332.924103,860.720764 
	C356.375092,860.083496 376.547516,868.117065 394.917236,881.906494 
	C419.250092,900.172180 432.472809,924.572144 434.911560,954.793518 
	C435.701233,964.579468 436.245636,974.414795 436.264282,984.228760 
	C436.383514,1047.051147 436.325073,1109.873901 436.325043,1172.696533 
	C436.325043,1174.493164 436.325012,1176.289795 436.325012,1178.322144 
	C399.776428,1178.322144 363.678162,1178.322144 327.154175,1178.322144 
	C327.154175,1107.293213 327.154175,1036.406006 327.154175,965.228271 
	C290.002197,965.228271 253.275040,965.228271 216.108673,965.228271 
	C216.108673,1036.291138 216.108673,1107.187500 216.108673,1178.390381 
	C179.433014,1178.390381 143.194916,1178.390381 106.638947,1178.390381 
	C106.638947,1073.110107 106.638947,967.898987 106.638947,862.079102 
	C130.307007,862.079102 153.903503,862.079102 178.000031,862.079102 
z"/>
<path fill="#FEFEFE" opacity="1.000000" stroke="none" 
	d="
M973.916382,1177.839355 
	C940.439880,1177.828369 907.452087,1177.818115 874.464233,1177.795288 
	C874.158569,1177.795166 873.852966,1177.626343 873.228027,1177.442139 
	C873.228027,1072.189819 873.228027,966.856873 873.228027,861.318115 
	C909.493042,861.318115 945.574280,861.318115 982.146484,861.318115 
	C982.146484,879.113708 982.146484,896.791809 982.146484,914.469910 
	C982.564331,914.724548 982.982117,914.979126 983.399963,915.233704 
	C983.975220,914.294189 984.431702,913.251709 985.143250,912.430237 
	C999.102234,896.315674 1013.043396,880.184875 1027.150879,864.200928 
	C1028.489746,862.683899 1030.904419,861.250610 1032.826416,861.241882 
	C1070.645386,861.069153 1108.465332,861.111694 1146.285156,861.124268 
	C1147.095703,861.124512 1147.906372,861.287903 1149.887085,861.501221 
	C1148.674438,864.070679 1148.098877,866.495056 1146.654907,868.171509 
	C1119.371948,899.847473 1092.023560,931.467529 1064.517700,962.949768 
	C1063.054688,964.624329 1060.088379,965.804077 1057.810547,965.822571 
	C1033.006592,966.024780 1008.200439,965.949036 982.793457,965.949036 
	C982.793457,1036.529907 982.793457,1106.877441 982.793457,1177.839355 
	C979.615967,1177.839355 977.010437,1177.839355 973.916382,1177.839355 
z"/>
<path fill="#180648" opacity="1.000000" stroke="none" 
	d="
M677.049683,950.846436 
	C706.506653,963.486206 723.123169,985.553406 723.506165,1017.167419 
	C723.874634,1047.579224 709.809509,1071.138672 681.791138,1084.332153 
	C638.173096,1104.871094 586.894897,1074.441895 582.999756,1026.307617 
	C579.893616,987.924133 604.145752,954.809570 640.852783,947.592712 
	C653.027405,945.199097 665.033325,946.293396 677.049683,950.846436 
z"/>
<path fill="#180648" opacity="1.000000" stroke="none" 
	d="
M1350.875488,966.124878 
	C1378.373779,995.451050 1380.283203,1035.408813 1355.875977,1065.822876 
	C1329.576050,1098.595459 1278.804321,1099.809082 1250.928345,1068.331665 
	C1215.451660,1028.271484 1231.748169,964.628235 1281.722656,949.612976 
	C1307.446411,941.884033 1330.730835,947.433350 1350.875488,966.124878 
z"/>
</svg>