<svg xmlns="http://www.w3.org/2000/svg" width="400" height="400" viewBox="80 70 240 240" version="1.1"><path d="M 239.275 97.471 C 223.072 102.045, 209.469 113.964, 203.737 128.609 C 202.853 130.869, 201.001 137.725, 199.622 143.845 C 196.179 159.132, 190.943 169.021, 181.035 178.950 C 176.891 183.102, 170.575 188.199, 167 190.276 C 147.870 201.388, 123.720 202.787, 104.158 193.918 C 100.572 192.292, 97.266 191.334, 96.811 191.789 C 96.355 192.245, 96.099 217.566, 96.241 248.059 L 96.500 303.500 148.210 303.759 L 199.919 304.018 200.210 261.259 C 200.492 219.612, 200.556 218.396, 202.662 214.500 C 205.536 209.184, 210.491 204.569, 216 202.079 C 219.999 200.271, 222.565 200.041, 239.040 200.022 C 252.296 200.006, 259.278 199.566, 263.540 198.478 C 281.956 193.777, 295.514 181.140, 301.605 163 C 304.371 154.763, 304.146 140.527, 301.110 131.643 C 296.229 117.365, 285.324 105.819, 271.144 99.916 C 261.955 96.091, 247.966 95.018, 239.275 97.471" stroke="none" fill="#0d0d0d" fill-rule="evenodd"/></svg>