<?xml version="1.0" encoding="UTF-8"?>
<!DOCTYPE svg PUBLIC "-//W3C//DTD SVG 1.1//EN" "http://www.w3.org/Graphics/SVG/1.1/DTD/svg11.dtd">
<svg xmlns="http://www.w3.org/2000/svg" version="1.1" width="200px" height="200px" style="shape-rendering:geometricPrecision; text-rendering:geometricPrecision; image-rendering:optimizeQuality; fill-rule:evenodd; clip-rule:evenodd" xmlns:xlink="http://www.w3.org/1999/xlink">
<g><path style="opacity:0.996" fill="#820000" d="M 110.5,133.5 C 109.833,124.833 109.167,116.167 108.5,107.5C 103.125,107.172 97.7921,107.505 92.5,108.5C 90,112.833 87.5,117.167 85,121.5C 82.0416,117.084 79.2083,112.584 76.5,108C 71.5111,107.501 66.5111,107.334 61.5,107.5C 60.8333,111.833 60.1667,116.167 59.5,120.5C 50.9276,110.384 39.9276,105.384 26.5,105.5C 19.4109,105.96 12.4109,106.96 5.5,108.5C 4.83333,108.5 4.5,108.167 4.5,107.5C 21.9905,91.0556 42.6572,80.7223 66.5,76.5C 71.5,76.5 76.5,76.5 81.5,76.5C 81.2322,78.099 81.5655,79.4324 82.5,80.5C 83.2823,78.3654 83.949,75.5321 84.5,72C 97.1048,71.4825 109.771,71.1492 122.5,71C 147.778,73.7362 172.112,80.0695 195.5,90C 196.671,95.8221 195.004,100.822 190.5,105C 175.956,108.842 161.289,112.176 146.5,115C 144.82,115.347 143.82,116.347 143.5,118C 144.233,119.766 144.567,121.599 144.5,123.5C 136.78,123.238 129.113,123.738 121.5,125C 119.5,126 117.5,127 115.5,128C 114.285,130.375 112.619,132.209 110.5,133.5 Z M 103.5,84.5 C 102.167,85.8333 102.167,87.1667 103.5,88.5C 102.833,88.5 102.167,88.5 101.5,88.5C 101.44,87.9569 101.107,87.6236 100.5,87.5C 99.2267,88.2565 99.2267,88.9232 100.5,89.5C 101.167,90.5 101.833,91.5 102.5,92.5C 101.375,93.3478 101.375,94.3478 102.5,95.5C 102.167,95.5 101.833,95.5 101.5,95.5C 96.0017,91.6715 92.0017,86.6715 89.5,80.5C 89.8333,79.8333 90.1667,79.1667 90.5,78.5C 94.9793,80.2405 99.3126,82.2405 103.5,84.5 Z M 137.5,85.5 C 138.449,84.8476 139.615,84.5143 141,84.5C 146.525,85.5383 152.025,86.705 157.5,88C 150.341,90.4761 143.674,89.6428 137.5,85.5 Z"/></g>
<g><path style="opacity:0.595" fill="#4d0200" d="M 66.5,76.5 C 71.6405,75.5119 76.9738,75.1786 82.5,75.5C 82.5,77.1667 82.5,78.8333 82.5,80.5C 81.5655,79.4324 81.2322,78.099 81.5,76.5C 76.5,76.5 71.5,76.5 66.5,76.5 Z"/></g>
<g><path style="opacity:0.643" fill="#450600" d="M 103.5,84.5 C 107.023,86.5849 107.023,87.9182 103.5,88.5C 102.167,87.1667 102.167,85.8333 103.5,84.5 Z"/></g>
<g><path style="opacity:0.067" fill="#1c0000" d="M 101.5,88.5 C 100.833,88.5 100.5,88.8333 100.5,89.5C 99.2267,88.9232 99.2267,88.2565 100.5,87.5C 101.107,87.6236 101.44,87.9569 101.5,88.5 Z"/></g>
<g><path style="opacity:0.122" fill="#270200" d="M 101.5,95.5 C 101.833,95.5 102.167,95.5 102.5,95.5C 104.066,95.9763 104.4,96.643 103.5,97.5C 102.478,97.1445 101.811,96.4778 101.5,95.5 Z"/></g>
<g><path style="opacity:0.02" fill="#270300" d="M 93.5,98.5 C 94.8333,98.5 95.5,99.1667 95.5,100.5C 94.5,100.167 93.8333,99.5 93.5,98.5 Z"/></g>
<g><path style="opacity:0.149" fill="#260100" d="M 96.5,100.5 C 97.7562,100.461 98.7562,100.961 99.5,102C 98.0024,102.585 97.0024,102.085 96.5,100.5 Z"/></g>
<g><path style="opacity:0.667" fill="#550100" d="M 61.5,107.5 C 61.8266,112.214 61.4933,116.88 60.5,121.5C 59.8933,121.376 59.56,121.043 59.5,120.5C 60.1667,116.167 60.8333,111.833 61.5,107.5 Z"/></g>
<g><path style="opacity:0.667" fill="#570000" d="M 108.5,107.5 C 109.167,116.167 109.833,124.833 110.5,133.5C 110.44,134.043 110.107,134.376 109.5,134.5C 108.502,125.525 108.168,116.525 108.5,107.5 Z"/></g>
<g><path style="opacity:0.38" fill="#3d0300" d="M 144.5,108.5 C 146.119,106.762 148.119,106.262 150.5,107C 148.564,107.813 146.564,108.313 144.5,108.5 Z"/></g>
<g><path style="opacity:0.137" fill="#1f0000" d="M 4.5,107.5 C 4.5,108.167 4.83333,108.5 5.5,108.5C 5.44001,109.043 5.10667,109.376 4.5,109.5C 3.22671,108.743 3.22671,108.077 4.5,107.5 Z"/></g>
<g><path style="opacity:0.082" fill="#260400" d="M 144.5,108.5 C 143.71,109.401 142.71,110.068 141.5,110.5C 141.821,108.952 142.821,108.285 144.5,108.5 Z"/></g>
<g><path style="opacity:0.063" fill="#2a0400" d="M 140.5,109.5 C 140.573,111.027 139.906,112.027 138.5,112.5C 138.427,110.973 139.094,109.973 140.5,109.5 Z"/></g>
<g><path style="opacity:0.159" fill="#290100" d="M 136.5,112.5 C 136.328,113.492 136.662,114.158 137.5,114.5C 137.302,119.564 136.635,119.397 135.5,114C 135.57,113.235 135.903,112.735 136.5,112.5 Z"/></g>
<g><path style="opacity:0.333" fill="#2b0000" d="M 78.5,125.5 C 77.5093,131.979 77.176,138.646 77.5,145.5C 82.5,145.5 87.5,145.5 92.5,145.5C 92.824,138.646 92.4907,131.979 91.5,125.5C 91.56,124.957 91.8933,124.624 92.5,124.5C 93.4973,131.803 93.8306,139.137 93.5,146.5C 87.8333,146.5 82.1667,146.5 76.5,146.5C 76.1694,139.137 76.5027,131.803 77.5,124.5C 78.1067,124.624 78.44,124.957 78.5,125.5 Z"/></g>
<g><path style="opacity:0.997" fill="#820100" d="M 78.5,125.5 C 80.4161,128.598 82.5828,131.598 85,134.5C 87.1882,131.433 89.3548,128.433 91.5,125.5C 92.4907,131.979 92.824,138.646 92.5,145.5C 87.5,145.5 82.5,145.5 77.5,145.5C 77.176,138.646 77.5093,131.979 78.5,125.5 Z"/></g>
</svg>
